<svg width="1025" height="278" viewBox="0 0 1025 278" fill="none" xmlns="http://www.w3.org/2000/svg">
<path d="M1009.36 69.0518C1013.69 69.0518 1017.28 70.5533 1020.12 73.5565C1022.95 76.3929 1024.37 79.98 1024.37 84.3179L1024.37 193.684C1024.37 209.033 1021.45 221.213 1015.61 230.222C1009.94 239.399 1002.26 245.989 992.587 249.993C982.911 253.998 972.066 256 960.053 256C954.714 256 949.041 255.583 943.035 254.748C937.029 253.914 932.107 252.663 928.269 250.995C923.264 248.826 919.76 246.073 917.758 242.736C915.923 239.566 915.589 236.145 916.757 232.475C918.259 227.636 920.678 224.3 924.015 222.464C927.352 220.796 930.855 220.629 934.526 221.964C937.195 222.798 940.699 224.049 945.037 225.718C949.375 227.553 954.38 228.471 960.053 228.471C967.728 228.471 974.068 227.386 979.073 225.217C984.245 223.215 988.083 219.711 990.585 214.706C993.255 209.868 994.59 203.194 994.59 194.685V177.917L999.845 183.923C997.009 189.429 993.422 194.017 989.084 197.688C984.913 201.192 979.907 203.861 974.068 205.697C968.228 207.532 961.555 208.199 954.047 208.199C945.204 208.199 937.446 206.447 930.772 202.443C924.265 198.272 919.176 192.599 915.506 185.425C911.835 178.084 910 169.742 910 160.399V84.3179C910 79.98 911.418 76.3929 914.255 73.5565C917.091 70.5533 920.678 69.0518 925.016 69.0518C929.354 69.0518 932.941 70.5533 935.777 73.5565C938.614 76.3929 940.032 79.98 940.032 84.3179L940.032 151.389C940.032 162.234 942.368 169.909 947.039 174.413C951.878 178.751 958.551 180.92 967.06 180.92C972.9 180.92 977.822 179.836 981.826 177.667C985.83 175.331 988.917 171.994 991.086 167.656C993.255 163.151 994.339 157.729 994.339 151.389L994.339 84.3179C994.339 79.98 995.758 76.3929 998.594 73.5565C1001.43 70.5533 1005.02 69.0518 1009.36 69.0518Z" fill="#CE93D8"/>
<path d="M882.965 189.93C882.965 194.268 881.464 197.939 878.461 200.942C875.624 203.778 872.037 205.196 867.699 205.196C863.528 205.196 860.024 203.778 857.188 200.942C854.352 197.939 852.934 194.268 852.934 189.93V36.2662C852.934 31.9282 854.352 28.3411 857.188 25.5048C860.191 22.5016 863.862 21 868.2 21C872.538 21 876.041 22.5016 878.711 25.5048C881.547 28.3411 882.965 31.9282 882.965 36.2662V189.93Z" fill="#CE93D8"/>
<path d="M810.906 21C815.244 21 818.831 22.4182 821.667 25.2545C824.504 28.0908 825.922 31.7614 825.922 36.2662V192.933C825.922 197.271 824.504 200.942 821.667 203.945C818.831 206.781 815.244 208.199 810.906 208.199C806.568 208.199 802.981 206.781 800.145 203.945C797.308 200.942 795.89 194.268 795.89 189.93V177.667L801.396 179.919C801.396 182.088 800.228 184.758 797.892 187.928C795.556 190.931 792.386 193.934 788.382 196.937C784.378 199.941 779.623 202.527 774.117 204.696C768.778 206.698 762.938 208.199 756.598 208.199C745.086 208.199 734.659 204.779 725.315 198.94C715.972 192.933 708.548 184.758 703.042 174.414C697.703 163.902 695.033 151.89 695.033 138.375C695.033 124.694 697.703 112.682 703.042 102.337C708.548 91.8261 715.889 83.6508 725.065 77.8112C734.241 71.8049 744.419 69.052 755.597 69.052C762.772 69.052 769.362 69.8862 775.368 72.0551C781.375 74.2241 786.547 76.977 790.885 80.3139C795.39 83.6508 798.81 87.071 801.146 90.5747C803.648 93.9116 804.9 96.748 804.9 99.0838L795.89 102.337V36.2662C795.89 31.9282 797.308 28.3411 800.145 25.5048C802.981 22.5016 806.568 21 810.906 21ZM760.352 180.17C767.694 180.17 774.117 178.334 779.623 174.664C785.129 170.993 789.383 165.988 792.386 159.648C795.556 153.308 797.141 146.217 797.141 138.375C797.141 130.367 795.556 123.193 792.386 116.853C789.383 110.513 785.129 105.507 779.623 101.837C774.117 98.1661 767.694 96.3308 760.352 96.3308C753.178 96.3308 746.838 98.1661 741.332 101.837C735.826 105.507 731.488 110.513 728.318 116.853C725.315 123.193 723.814 130.367 723.814 138.375C723.814 146.217 725.315 153.308 728.318 159.648C731.488 165.988 735.826 170.993 741.332 174.664C746.838 178.334 753.178 180.17 760.352 180.17Z" fill="#CE93D8"/>
<path d="M672.427 192.934C672.427 197.272 671.009 200.942 668.173 203.946C665.336 206.782 661.749 208.2 657.411 208.2C653.073 208.2 649.486 206.782 646.65 203.946C643.814 200.942 642.396 197.272 642.396 192.934V84.3181C642.396 79.9802 643.814 76.3931 646.65 73.5567C649.486 70.5535 653.073 69.052 657.411 69.052C661.749 69.052 665.336 70.5535 668.173 73.5567C671.009 76.3931 672.427 79.9802 672.427 84.3181V192.934ZM657.161 60.0003C651.488 60.0003 647.484 59.0827 645.148 57.2474C642.812 55.4121 641.645 52.1587 641.645 47.487V42.732C641.645 37.8935 642.896 34.6401 645.399 32.9717C648.068 31.1364 652.072 30.2188 657.411 30.2188C663.251 30.2188 667.338 31.1364 669.674 32.9717C672.01 34.8069 673.178 38.0604 673.178 42.732V47.487C673.178 52.3255 671.927 55.6624 669.424 57.4977C666.921 59.1661 662.834 60.0003 657.161 60.0003Z" fill="#CE93D8"/>
<path d="M604.627 69.0518C608.965 69.0518 612.552 70.5533 615.388 73.5565C618.224 76.3929 619.643 79.98 619.643 84.3179L619.643 150.889C619.643 168.574 614.721 182.589 604.877 192.933C595.034 203.278 580.852 208.45 562.332 208.45C543.813 208.45 529.631 203.278 519.787 192.933C510.11 182.589 505.272 168.574 505.272 150.889L505.271 84.3179C505.271 79.98 506.69 76.3929 509.526 73.5565C512.362 70.5533 515.949 69.0518 520.287 69.0518C524.625 69.0518 528.212 70.5533 531.049 73.5565C533.885 76.3929 535.303 79.98 535.303 84.3179L535.304 150.889C535.304 161.066 537.556 168.658 542.061 173.663C546.566 178.501 553.323 180.921 562.332 180.921C571.509 180.921 578.349 178.501 582.854 173.663C587.359 168.658 589.611 161.066 589.611 150.889L589.611 84.3179C589.611 79.98 591.029 76.3929 593.865 73.5565C596.702 70.5533 600.289 69.0518 604.627 69.0518Z" fill="#CE93D8"/>
<path d="M440.107 69.0518C449.659 69.0518 457.954 70.0546 464.992 72.0603C472.197 74.0661 477.727 76.9075 481.581 80.5847C485.603 84.0947 487.614 88.3569 487.614 93.3712C487.614 96.7141 486.608 99.8898 484.598 102.898C482.587 105.74 479.654 107.161 475.8 107.161C473.119 107.161 470.857 106.826 469.013 106.158C467.338 105.322 465.829 104.319 464.489 103.149C463.148 101.979 461.556 100.893 459.713 99.8898C458.037 98.887 455.44 98.1348 451.921 97.6334C448.57 96.9648 446.056 96.6305 444.38 96.6305C435.834 96.6305 428.545 98.4691 422.512 102.146C416.647 105.823 412.123 110.838 408.939 117.189C405.755 123.374 404.163 130.561 404.163 138.751C404.163 146.774 405.755 153.961 408.939 160.312C412.29 166.497 416.815 171.427 422.512 175.105C428.377 178.782 435.08 180.62 442.621 180.62C446.81 180.62 450.413 180.37 453.429 179.868C456.445 179.367 458.959 178.615 460.97 177.612C463.316 176.275 465.411 174.854 467.254 173.35C469.097 171.845 471.862 171.093 475.549 171.093C479.905 171.093 483.257 172.514 485.603 175.355C487.949 178.03 489.122 181.373 489.122 185.384C489.122 189.563 486.776 193.407 482.084 196.917C477.392 200.26 471.192 203.018 463.483 205.191C455.943 207.196 447.732 208.199 438.85 208.199C425.612 208.199 414.133 205.191 404.414 199.173C394.695 192.989 387.154 184.632 381.792 174.102C376.597 163.572 374 151.788 374 138.751C374 125.045 376.765 113.011 382.295 102.648C387.992 92.1176 395.784 83.9276 405.671 78.0775C415.725 72.0604 427.204 69.0518 440.107 69.0518Z" fill="#CE93D8"/>
<path d="M64.617 2.45727C25.4784 12.9007 0 48.8382 0 93.2227C0 138.989 18.5716 180.456 54.487 214.704C81.6538 240.659 119.718 267.382 139.671 274.446C152.717 279.054 167.912 279.207 180.805 274.753C199.377 268.457 236.98 242.041 261.231 218.083C274.584 204.875 276.119 202.725 277.04 196.428C279.802 177.384 266.449 160.49 248.645 160.644C239.436 160.798 234.064 163.869 219.79 176.77C194.465 200.114 171.135 215.011 160.391 215.011C153.792 215.011 144.583 210.404 128.62 199.346C80.8864 166.173 56.1754 129.621 58.7846 95.6799C60.4729 73.4109 73.2122 59.8959 92.5512 59.8959C97.7697 59.8959 103.449 60.971 106.365 62.3532C109.128 63.7354 118.644 72.0287 127.546 80.7827C144.583 97.5229 150.875 101.362 161.159 101.362C171.442 101.362 177.428 97.6765 194.925 80.6292C203.981 71.7216 213.958 63.4283 217.027 62.1996C224.701 58.9745 236.827 59.2816 244.041 62.9675C253.403 67.7285 256.626 73.5645 258.008 88.7689C259.389 103.666 263.687 111.806 273.049 117.335C279.342 121.021 293.616 121.174 300.216 117.795C311.113 112.113 314.95 104.434 315.871 86.0044C317.099 58.9745 309.578 39.4699 291.621 22.4226C275.044 6.91108 256.78 4.84075e-06 232.222 4.84075e-06C208.586 4.84075e-06 193.544 6.29676 175.126 23.8048C168.526 30.1016 162.233 35.3233 161.159 35.3233C160.084 35.3233 153.945 30.2551 147.499 24.112C134.146 11.672 124.476 5.83602 111.276 2.30369C99.9185 -0.614313 75.6679 -0.614313 64.617 2.45727Z" fill="#CE93D8"/>
</svg>
